Coordinates
nRows=7
nColumns=38

# SIMM Motion File Header:
name Coordinates
datacolumns 38
datarows 7
otherdata 1
range 2.24799999999999980000 2.25400000000000000000

Units are S.I. units (second, meters, Newtons, ...)
Angles are in degrees.

endheader
time	pelvis_tilt	pelvis_list	pelvis_rotation	pelvis_tx	pelvis_ty	pelvis_tz	hip_flexion_r	hip_adduction_r	hip_rotation_r	knee_angle_r	ankle_angle_r	subtalar_angle_r	mtp_angle_r	hip_flexion_l	hip_adduction_l	hip_rotation_l	knee_angle_l	ankle_angle_l	subtalar_angle_l	mtp_angle_l	lumbar_extension	lumbar_bending	lumbar_rotation	arm_flex_r	arm_add_r	arm_rot_r	elbow_flex_r	pro_sup_r	wrist_flex_r	wrist_dev_r	arm_flex_l	arm_add_l	arm_rot_l	elbow_flex_l	pro_sup_l	wrist_flex_l	wrist_dev_l
      2.24799999999999980000	     -0.47333217913903358000	      8.53408030872583550000	     -1.35129542797809200000	      0.76004443087809581000	      0.97766151841913729000	     -0.28956749707315976000	     33.19157266050280000000	     -5.82460998621012750000	      4.97415322680890880000	    -90.48222322085241800000	     -3.00157290168981780000	     -0.00000000000016325115	     -0.00000000000002281899	     -0.09542818226338802000	     15.90647046359367200000	      7.90734015793414710000	    -31.77709062395153000000	     21.98372943974619200000	     -0.00000000000000971663	      0.00000000000008412574	    -14.05552951463985600000	    -13.36030384768373700000	     -7.24863864442651900000	    -25.55952640263507900000	    -19.27414698879147900000	     -4.85619252794396680000	     83.15163377372033400000	     72.34581510744209300000	      0.00000000000000325060	     -0.00000000000006033092	     -3.47550536548616320000	    -22.97348359729015900000	     -4.38563156580589910000	     96.65280553144721400000	     97.57370763699287900000	      0.00000000000007150093	      0.00000000000000106023
      2.24900000000000010000	     -0.45792368575331993000	      8.43061732260906990000	     -1.35889866555076270000	      0.76021150483416700000	      0.97822690490640973000	     -0.28953711555091560000	     33.35480125832555100000	     -5.71754363765064430000	      4.90701808278286490000	    -90.10117142603972700000	     -2.91739068412591610000	     -0.00000000000016376054	     -0.00000000000002285197	     -0.56059578523556497000	     15.77930069194845700000	      8.03645002206882890000	    -31.43037934320633300000	     21.73188789893129400000	     -0.00000000000001007495	      0.00000000000008417684	    -14.04866485673484900000	    -13.23052950070520100000	     -7.32345170393593750000	    -25.76578505096261300000	    -19.24582786422784500000	     -4.92228851201096780000	     83.21202825226569600000	     72.30699811430110900000	      0.00000000000000328217	     -0.00000000000006047674	     -3.36827667871201040000	    -22.90648469576411000000	     -4.40716001008710820000	     96.82844600671420200000	     97.57561008682049000000	      0.00000000000007171723	      0.00000000000000103018
      2.25000000000000000000	     -0.44301778856048296000	      8.32446866120336000000	     -1.36487885263780240000	      0.76038550388419968000	      0.97879801422072865000	     -0.28950670020002400000	     33.51310898953433800000	     -5.60856823052341810000	      4.83618194162332490000	    -89.71206845320895700000	     -2.83552602043543620000	     -0.00000000000016427127	     -0.00000000000002288423	     -1.02560113747382560000	     15.64759649166637300000	      8.16398015365227180000	    -31.08094312777397400000	     21.46887669244008000000	     -0.00000000000001044481	      0.00000000000008429256	    -14.04062501273965500000	    -13.09744485297813700000	     -7.39831747972478660000	    -25.97337231343997700000	    -19.21773517042159800000	     -4.99100697128576520000	     83.27582263635584100000	     72.26933803449303200000	      0.00000000000000331443	     -0.00000000000006061872	     -3.26393047032879700000	    -22.83998397874845700000	     -4.42698338706518420000	     97.00594521702882400000	     97.57263856934544300000	      0.00000000000007193358	      0.00000000000000100164
      2.25099999999999990000	     -0.42865106619621191000	      8.21566187236415150000	     -1.36930765229963150000	      0.76056634924686806000	      0.97937455542377083000	     -0.28947608557754262000	     33.66655651295231900000	     -5.49764528096763530000	      4.76179257979381540000	    -89.31496657835366200000	     -2.75604293574229020000	     -0.00000000000016478046	     -0.00000000000002291827	     -1.49024342793632210000	     15.51136114369950600000	      8.28965845965161210000	    -30.72897470493949300000	     21.19465981432737000000	     -0.00000000000001078778	      0.00000000000008442658	    -14.03135632993709300000	    -12.96111501136262800000	     -7.47319375776921380000	    -26.18216677405153100000	    -19.18987927269437300000	     -5.06216997082129080000	     83.34282001048448800000	     72.23283391892916000000	      0.00000000000000334664	     -0.00000000000006076047	     -3.16247141918258290000	    -22.77400882201671100000	     -4.44505314072447270000	     97.18518291042228400000	     97.56490831919369100000	      0.00000000000007214955	      0.00000000000000098239
      2.25199999999999980000	     -0.41485927129627725000	      8.10422577902688520000	     -1.37225931477732250000	      0.76075395314154837000	      0.97995623722312863000	     -0.28944510606890334000	     33.81520624699918900000	     -5.38473425196707560000	      4.68400364453175650000	    -88.90991663647412200000	     -2.67900134219468010000	     -0.00000000000016529112	     -0.00000000000002295414	     -1.95432198202130850000	     15.37060630922604300000	      8.41321600642880970000	    -30.37466946929756900000	     20.90920381936715700000	     -0.00000000000001113519	      0.00000000000008460687	    -14.02080783179530400000	    -12.82160630647791600000	     -7.54803806612726280000	    -26.39204818017927700000	    -19.16227176974926000000	     -5.13559877719022850000	     83.41282551795082200000	     72.19747509890751800000	      0.00000000000000337906	     -0.00000000000006090075	     -3.06390450191233790000	    -22.70858592091676800000	     -4.46132466534952780000	     97.36604391592531700000	     97.55254274987142100000	      0.00000000000007236505	      0.00000000000000095026
      2.25300000000000010000	     -0.40167734506875125000	      7.99019060550040640000	     -1.37381038850822180000	      0.76094821901669152000	      0.98054276829139431000	     -0.28941359623366375000	     33.95912216405849200000	     -5.26979303629363470000	      4.60297427943983010000	    -88.49696788734876000000	     -2.60445655971153430000	     -0.00000000000016580335	     -0.00000000000002298806	     -2.41763670045590560000	     15.22535215039855100000	      8.53438784990759910000	    -30.01822492166572300000	     20.61247814249014400000	     -0.00000000000001146519	      0.00000000000008481156	    -14.00893129679114100000	    -12.67898637135120400000	     -7.62280784472345460000	    -26.60289759942097700000	    -19.13492538950155000000	     -5.21111440107514760000	     83.48564683088818600000	     72.16324163097701200000	      0.00000000000000341110	     -0.00000000000006103966	     -2.96823477149857060000	    -22.64374141738287700000	     -4.47575714398877000000	     97.54841813554128300000	     97.53567313454371400000	      0.00000000000007258067	      0.00000000000000091763
      2.25400000000000000000	     -0.38913941679472924000	      7.87358813737856970000	     -1.37403940988076960000	      0.76114904187487720000	      0.98113385756428473000	     -0.28938139115955613000	     34.09836953746395900000	     -5.15277852403826310000	      4.51886871858923820000	    -88.07616787532701600000	     -2.53245887158579560000	     -0.00000000000016631613	     -0.00000000000002302167	     -2.87998849405507150000	     15.07562741657849500000	      8.65291383324787410000	    -29.65984015902765600000	     20.30445566814937300000	     -0.00000000000001180780	      0.00000000000008500706	    -13.99568132368989400000	    -12.53332426053049900000	     -7.69746062135104130000	    -26.81459754580735600000	    -19.10785387253793000000	     -5.28853810067608520000	     83.56109456445696500000	     72.13010487535453300000	      0.00000000000000344447	     -0.00000000000006117765	     -2.87546713301670960000	    -22.57950101897067400000	     -4.48831337207802150000	     97.73220045699790100000	     97.51443829288143700000	      0.00000000000007279693	      0.00000000000000087285
